<?xml version="1.0" encoding="UTF-8" standalone="no"?>
<!-- Created with Inkscape (http://www.inkscape.org/) -->
<svg xmlns:dc="http://purl.org/dc/elements/1.1/" xmlns:cc="http://web.resource.org/cc/" xmlns:rdf="http://www.w3.org/1999/02/22-rdf-syntax-ns#" xmlns:svg="http://www.w3.org/2000/svg" xmlns="http://www.w3.org/2000/svg" xmlns:xlink="http://www.w3.org/1999/xlink" xmlns:sodipodi="http://sodipodi.sourceforge.net/DTD/sodipodi-0.dtd" xmlns:inkscape="http://www.inkscape.org/namespaces/inkscape" id="svg1923" sodipodi:version="0.32" inkscape:version="0.44.1" width="560" height="581" version="1.0" sodipodi:docbase="C:\Documents and Settings\tim\Desktop\New Folder (3)\pdf2svg\worldlabel" sodipodi:docname="boyface3.svg">
  <defs id="defs1926">
    <linearGradient inkscape:collect="always" id="linearGradient3825">
      <stop style="stop-color:#dc9b8c;stop-opacity:1;" offset="0" id="stop3827"/>
      <stop style="stop-color:#dc9b8c;stop-opacity:0;" offset="1" id="stop3829"/>
    </linearGradient>
    <linearGradient id="linearGradient2932">
      <stop style="stop-color:black;stop-opacity:1;" offset="0" id="stop2934"/>
      <stop style="stop-color:black;stop-opacity:0;" offset="1" id="stop2936"/>
    </linearGradient>
    <radialGradient inkscape:collect="always" xlink:href="#linearGradient2932" id="radialGradient2938" cx="172.60478" cy="365.24402" fx="172.60478" fy="365.24402" r="58.562332" gradientUnits="userSpaceOnUse"/>
    <radialGradient inkscape:collect="always" xlink:href="#linearGradient3825" id="radialGradient3831" cx="172.60478" cy="365.24402" fx="172.60478" fy="365.24402" r="59.062332" gradientUnits="userSpaceOnUse"/>
    <radialGradient inkscape:collect="always" xlink:href="#linearGradient3825" id="radialGradient3835" gradientUnits="userSpaceOnUse" cx="172.60478" cy="365.24402" fx="172.60478" fy="365.24402" r="59.062332"/>
    <radialGradient inkscape:collect="always" xlink:href="#linearGradient2932" id="radialGradient3837" gradientUnits="userSpaceOnUse" cx="172.60478" cy="365.24402" fx="172.60478" fy="365.24402" r="58.562332"/>
  </defs>
  <sodipodi:namedview inkscape:window-height="712" inkscape:window-width="1024" inkscape:pageshadow="2" inkscape:pageopacity="0.0" guidetolerance="10.0" gridtolerance="10.0" objecttolerance="10.0" borderopacity="1.0" bordercolor="#666666" pagecolor="#ffffff" id="base" inkscape:zoom="0.64888124" inkscape:cx="458.32838" inkscape:cy="301.59525" inkscape:window-x="-4" inkscape:window-y="-4" inkscape:current-layer="svg1923"/>
  <path style="fill:#e8cdba;fill-opacity:1" d="M 258.5002,555.36988 C 253.00032,554.62307 245.70622,553.10933 242.29111,552.00602 C 238.87599,550.90271 235.56867,550 234.9415,550 C 233.18009,550 215.26504,542.50421 208,538.72749 C 199.05719,534.07857 195.24673,531.83293 190,528.11945 C 187.525,526.36772 184.375,524.1792 183,523.25607 C 181.625,522.33294 176.45,518.10942 171.5,513.87049 C 134.41456,482.11233 108.87197,440.7774 93.025069,386.87649 L 90.783752,379.25297 L 86.141876,378.69348 C 79.377617,377.87819 71.517518,374.05079 57.718666,364.85308 C 40.980594,353.69622 31.782197,343.39887 30.416019,334.28854 C 29.340409,327.11586 29.973378,325.86992 40.5,314.4391 C 44.881422,309.68133 49.264677,304.10694 52.58236,299.07339 C 55.452726,294.71851 55.501833,294.41066 55.613139,280.07339 C 55.704504,268.30474 56.075535,264.73017 57.541011,261.5 C 59.068521,258.13309 59.393783,254.33455 59.596088,237.5 C 59.830529,217.99123 60.192138,215.04271 63.429716,206.24107 C 64.291344,203.89865 65.91509,197.59865 67.038041,192.24107 C 69.869001,178.73458 71.047212,175.79531 84.371266,149 C 89.157328,139.375 94.376276,129.475 95.968928,127 C 97.561581,124.525 100.91986,118.79224 103.43178,114.26052 C 109.8653,102.6539 116.31125,93.40081 122.4222,87 C 125.31021,83.975 129.73688,78.575 132.25925,75 C 139.15602,65.225053 158.93745,45.579207 168.52508,38.982745 C 175.17974,34.404217 190.64798,28.353842 199,27.062533 C 203.125,26.424765 212.43816,25.417767 219.69592,24.82476 L 232.89183,23.746565 L 237.44035,26.412172 C 242.43826,29.341144 244.60047,32.649273 245.5992,38.895027 C 246.37502,43.746716 247.51162,44.191887 248.35511,39.974432 C 249.05192,36.490396 251.90179,33.549869 258.02202,30 C 260.39262,28.625 263.80098,26.053973 265.59616,24.286606 C 267.39134,22.519239 270.12909,20.800406 271.68006,20.466979 C 273.23103,20.133551 276.525,19.183854 279,18.356542 C 281.475,17.529229 285.525,16.406926 288,15.862534 C 290.475,15.318142 293.88195,14.451366 295.571,13.936365 C 300.33219,12.484651 322.01482,12.826833 330.18462,14.482615 C 341.54887,16.78582 344.3356,17.708912 378,30.321258 C 383.80327,32.495448 402.07836,41.85374 408,45.683631 C 412.3213,48.478481 418.91409,52.930597 425.5,57.501393 C 428.25,59.409966 431.85,61.707441 433.5,62.606893 C 438.7227,65.453902 463.04412,91.205991 466.02069,97.040564 C 467.09359,99.14362 468.41252,101.13692 468.95165,101.47012 C 470.08446,102.17024 480.75152,121.25549 486.57421,133 C 487.25591,134.375 488.77379,138.425 489.94728,142 C 491.12078,145.575 493.15419,150.525 494.46598,153 C 497.64155,158.99147 500.84006,169.22925 505.55696,188.5 C 506.38593,191.88672 507.28255,202.12206 507.61557,212 C 508.02443,224.12747 508.79145,231.86713 510.11398,237.21049 C 511.16361,241.45126 512.28111,247.75126 512.59731,251.21049 C 512.9135,254.66972 513.83547,259.2641 514.64612,261.42023 C 515.6917,264.2012 516.04597,268.56035 515.86519,276.42023 C 515.61967,287.09465 515.7248,287.72497 518.73871,293.64911 C 522.0484,300.15465 522.92462,301.2676 532.6414,311.308 C 541.95935,320.93627 544.95693,328.42952 541.84536,334.31574 C 540.04532,337.7209 534.09134,343.25042 527.28535,347.83775 C 520.96533,352.09753 515.04282,354.81702 502.5,359.21866 C 498.65,360.56974 493.925,362.23944 492,362.9291 C 490.075,363.61876 486.85123,364.63675 484.83606,365.19131 L 481.17213,366.19959 L 478.48681,377.23673 C 468.63501,417.72941 449.15645,457.2755 424.66883,486.5 C 414.28198,498.89608 395.03769,517.18845 386,523.25607 C 384.625,524.1792 381.475,526.36772 379,528.11945 C 373.75327,531.83293 369.94281,534.07857 361,538.72749 C 353.73496,542.50421 335.81991,550 334.0585,550 C 333.43133,550 330.1241,550.8949 326.7091,551.98868 C 312.03882,556.68734 279.92582,558.27922 258.5002,555.36988 z " id="path2010"/>
  <path sodipodi:type="arc" style="opacity:0.97222222;fill:url(#radialGradient3831);fill-opacity:1;stroke:url(#radialGradient2938)" id="path2045" sodipodi:cx="172.60478" sodipodi:cy="365.24402" sodipodi:rx="58.562332" sodipodi:ry="58.562332" d="M 231.16711 365.24402 A 58.562332 58.562332 0 1 1  114.04245,365.24402 A 58.562332 58.562332 0 1 1  231.16711 365.24402 z" transform="translate(-15.41114,-9.246686)"/>
  <path style="fill:#eebb47;fill-opacity:1" d="M 490,358.93892 C 491.925,358.24385 496.65,356.56974 500.5,355.21866 C 504.35,353.86759 510.10341,351.69664 513.28535,350.39434 C 523.99858,346.00963 537.33523,335.49684 538.60559,330.43532 C 539.43265,327.14006 535.99149,321.30836 528.85578,313.91244 C 521.18628,305.96324 518.42528,302.61038 515.75229,298 L 513.72307,294.5 L 512.50067,299.31087 C 511.82835,301.95684 510.76566,304.63434 510.13913,305.26087 C 509.51261,305.88739 509,307.10747 509,307.97216 C 509,312.42588 498.12092,321.18992 490.97219,322.49512 L 487.44437,323.13922 L 485.27098,340.36067 C 484.07561,349.83247 482.77695,358.41769 482.38506,359.43894 C 481.78457,361.00378 482.05208,361.20981 484.08627,360.74921 C 485.41382,360.44861 488.075,359.63398 490,358.93892 z " id="path1980"/>
  <path style="fill:#eebb46;fill-opacity:1" d="M 89.616515,373.44304 C 87.303286,367.41486 82,331.49215 82,321.85129 C 82,316.73668 80.209365,314 76.86283,314 C 72.151802,314 64.319161,307.53507 61.453129,301.28109 L 59.406258,296.8146 L 55.544275,302.6573 C 53.420184,305.87079 50.896562,309.4 49.936226,310.5 C 42.154715,319.41319 40.224968,321.59262 38.273358,323.6719 C 34.749995,327.42574 33.811098,329.8583 34.553865,333.30865 C 35.570084,338.02926 37.38439,341.12449 41.805628,345.68028 C 43.985084,347.92606 46.157913,350.4209 46.634137,351.22436 C 47.858849,353.29065 71.18865,368.71466 76.815445,371.17811 C 86.106195,375.24566 90.614326,376.04329 89.616515,373.44304 z " id="path1986"/>
  <path style="fill:#eebb46;fill-opacity:1" d="M 74.792463,242.458 C 81.624334,240.47192 85.528713,240.97486 94.489305,244.9952 C 108.9045,251.46286 116.85569,247.04699 114.17387,234.06293 C 112.30901,225.03417 112.66421,220.46454 115.57246,216.06986 C 116.98732,213.93187 119.42998,211.65032 121.00061,210.99975 C 122.57123,210.34917 124.0753,209.24616 124.34298,208.5486 C 124.61065,207.85105 127.00549,206.75281 129.66483,206.10807 C 139.84744,203.63937 142,201.62719 142,194.57738 C 142,190.94024 145.97912,181.06884 148.14453,179.33402 C 148.89004,178.73676 153.29173,176.61727 157.92608,174.62405 C 164.38489,171.84612 167.70396,171 172.14215,171 C 179.90423,171 184.34612,168.77646 186.60909,163.75808 C 188.36685,159.86006 188.35897,159.74062 186.05721,155.40177 C 184.77289,152.9808 183.35358,151 182.90319,151 C 182.45281,151 180.84059,148.8625 179.32049,146.25 C 177.8004,143.6375 175.55869,140.70129 174.33893,139.72508 C 173.11916,138.74887 170.74391,135.03517 169.06059,131.47241 C 166.35547,125.74701 166.0051,123.97872 166.04389,116.24733 C 166.07083,110.87929 166.68177,105.95471 167.62531,103.5 C 168.47096,101.3 169.40335,98.375 169.69731,97 C 169.99127,95.625 170.74213,94.05 171.36589,93.5 C 171.98965,92.95 173.70563,90.750137 175.17918,88.611415 C 176.65273,86.472693 179.44582,83.772693 181.38606,82.611415 C 183.32629,81.450137 187.01601,79.209629 189.58543,77.632509 C 195.92418,73.74176 201.85648,73.669576 208.98403,77.396469 C 213.6385,79.830223 214.76634,80.048758 218.18888,79.180026 C 233.36698,75.327413 244.41161,58.636584 241.95941,43.2576 C 240.60826,34.783849 239.45246,32.622577 234.90536,30.066967 C 231.19908,27.983919 230.48868,27.929494 219.75835,28.906526 C 200.99014,30.615434 193.92038,32.046738 184.18342,36.108823 C 173.38322,40.614474 168.96293,43.499429 160,51.892403 C 146.13517,64.87557 139.16621,72.495989 132.92353,81.5 C 130.63557,84.8 126.90429,89.328834 124.6318,91.564076 C 119.52206,96.590065 113.72003,104.90173 107.56758,116.00935 C 104.98098,120.67921 101.56158,126.525 99.968928,129 C 98.376276,131.475 93.157328,141.375 88.371266,151 C 75.047212,177.79531 73.869001,180.73458 71.038041,194.24107 C 69.91509,199.59865 68.294819,205.89865 67.437438,208.24107 C 64.039298,217.52498 63.161951,223.45938 63.555291,234.5 C 63.770833,240.55 63.959068,246.09516 63.973593,246.82258 C 63.991996,247.7443 64.779196,247.53224 66.570825,246.12295 C 67.984778,245.01073 71.684515,243.36151 74.792463,242.458 z " id="path1950"/>
  <path style="fill:#eebb46;fill-opacity:1" d="M 473.35703,258.14839 C 476.73566,256.58 480.9625,254.72541 482.75,254.02707 C 484.5375,253.32873 486,252.44189 486,252.05631 C 486,251.06385 493.91586,246 495.4673,246 C 496.1756,246 497.31531,246.675 498,247.5 C 498.68469,248.325 499.76033,249 500.39031,249 C 501.02029,249 503.24205,250.15947 505.32755,251.57661 L 509.11937,254.15322 L 508.45849,250.32661 C 508.09501,248.22197 506.97737,243.125 505.97485,239 C 504.8039,234.18201 504.11531,227.38759 504.04925,220 C 503.94095,207.88885 502.61535,193.8769 501.02187,188 C 500.49993,186.075 499.36719,181.8 498.50469,178.5 C 495.7074,167.79743 492.9019,159.59595 490.46598,155 C 489.15419,152.525 487.12078,147.575 485.94728,144 C 484.77379,140.425 483.25591,136.375 482.57421,135 C 476.58759,122.92484 466.83431,105.55271 465.81909,105.15649 C 465.335,104.96755 463.87035,102.71755 462.56433,100.15649 C 461.2583,97.595419 457.61809,92.8 454.47496,89.5 C 437.10163,71.259567 433.67975,67.875255 431.21061,66.491073 C 429.71977,65.655322 426.25,63.409966 423.5,61.501393 C 416.91409,56.930597 410.3213,52.478481 406,49.683631 C 400.07836,45.85374 381.80327,36.495448 376,34.321258 C 342.3356,21.708912 339.54887,20.78582 328.18462,18.482615 C 319.98827,16.821452 302.26478,16.505205 297.571,17.936365 C 295.88195,18.451366 292.475,19.318142 290,19.862534 C 287.525,20.406926 283.475,21.529229 281,22.356542 C 278.525,23.183854 275.24754,24.129406 273.71676,24.457769 C 272.18597,24.786131 270.16097,25.985741 269.21676,27.123567 C 267.49746,29.195401 256.20178,37 254.92248,37 C 253.82631,37 252.12167,42.244703 252.1598,45.5 C 252.17913,47.15 251.62658,50.937708 250.93192,53.91713 C 248.86685,62.774199 252.50154,75.861282 258.11932,79.79613 C 259.96723,81.090454 267,94.644416 267,96.911484 C 267,98.257215 278.70965,120.90235 280.49019,123 C 281.19048,123.825 282.06323,125.4849 282.42964,126.68866 C 283.54305,130.34655 293.67517,139.8076 299.7638,142.87477 C 302.91871,144.46406 308.2,146.28767 311.5,146.92723 C 314.8,147.5668 319.3,148.70431 321.5,149.45505 C 330.22224,152.43146 354.77168,154.24676 367.84754,152.88219 L 378.19509,151.80234 L 382.15803,155.80491 C 384.33765,158.00632 387.55626,160.33806 389.31049,160.98656 C 391.06472,161.63506 393.97777,162.80338 395.78393,163.58282 C 397.59009,164.36227 401.52151,165 404.52043,165 L 409.973,165 L 413.53502,172.50625 C 415.49413,176.63469 418.04513,180.89577 419.20389,181.97533 L 421.31073,183.93815 L 418.97838,188.33468 C 416.91417,192.22576 416.7912,193.0817 417.9088,195.77982 C 419.41166,199.40804 422.25157,200.63223 431,201.42299 C 434.94612,201.77967 438.48226,202.73338 440,203.85032 C 441.375,204.86222 443.9625,206.44641 445.75,207.37075 C 447.5375,208.29509 449,209.69954 449,210.49175 C 449,211.28397 449.61623,213.40991 450.3694,215.21607 C 454.48039,225.0746 455.69928,230.84148 456.87589,246 C 457.70896,256.73266 458.21573,258.31106 461.30834,259.80554 C 464.76509,261.47598 466.78808,261.19774 473.35703,258.14839 z " id="path1976"/>
  <path transform="translate(238.8727,-16.95226)" d="M 231.16711 365.24402 A 58.562332 58.562332 0 1 1  114.04245,365.24402 A 58.562332 58.562332 0 1 1  231.16711 365.24402 z" sodipodi:ry="58.562332" sodipodi:rx="58.562332" sodipodi:cy="365.24402" sodipodi:cx="172.60478" id="path3833" style="opacity:0.97222222;fill:url(#radialGradient3835);fill-opacity:1;stroke:url(#radialGradient3837)" sodipodi:type="arc"/>
  <path style="fill:black" d="M 258.5002,555.36988 C 253.00032,554.62307 245.70622,553.10933 242.29111,552.00602 C 238.87599,550.90271 235.56867,550 234.9415,550 C 233.18009,550 215.26504,542.50421 208,538.72749 C 199.05719,534.07857 195.24673,531.83293 190,528.11945 C 187.525,526.36772 184.375,524.1792 183,523.25607 C 181.625,522.33294 176.45,518.10942 171.5,513.87049 C 134.41456,482.11233 108.87197,440.7774 93.025069,386.87649 L 90.783752,379.25297 L 86.141876,378.69348 C 79.377617,377.87819 71.517518,374.05079 57.718666,364.85308 C 40.980594,353.69622 31.782197,343.39887 30.416019,334.28854 C 29.340409,327.11586 29.973378,325.86992 40.5,314.4391 C 44.881422,309.68133 49.264677,304.10694 52.58236,299.07339 C 55.452726,294.71851 55.501833,294.41066 55.613139,280.07339 C 55.704504,268.30474 56.075535,264.73017 57.541011,261.5 C 59.068521,258.13309 59.393783,254.33455 59.596088,237.5 C 59.830529,217.99123 60.192138,215.04271 63.429716,206.24107 C 64.291344,203.89865 65.91509,197.59865 67.038041,192.24107 C 69.869001,178.73458 71.047212,175.79531 84.371266,149 C 89.157328,139.375 94.376276,129.475 95.968928,127 C 97.561581,124.525 100.91986,118.79224 103.43178,114.26052 C 109.8653,102.6539 116.31125,93.40081 122.4222,87 C 125.31021,83.975 129.73688,78.575 132.25925,75 C 139.15602,65.225053 158.93745,45.579207 168.52508,38.982745 C 175.17974,34.404217 190.64798,28.353842 199,27.062533 C 203.125,26.424765 212.43816,25.417767 219.69592,24.82476 L 232.89183,23.746565 L 237.44035,26.412172 C 242.43826,29.341144 244.60047,32.649273 245.5992,38.895027 C 246.37502,43.746716 247.51162,44.191887 248.35511,39.974432 C 249.05192,36.490396 251.90179,33.549869 258.02202,30 C 260.39262,28.625 263.80098,26.053973 265.59616,24.286606 C 267.39134,22.519239 270.12909,20.800406 271.68006,20.466979 C 273.23103,20.133551 276.525,19.183854 279,18.356542 C 281.475,17.529229 285.525,16.406926 288,15.862534 C 290.475,15.318142 293.88195,14.451366 295.571,13.936365 C 300.33219,12.484651 322.01482,12.826833 330.18462,14.482615 C 341.54887,16.78582 344.3356,17.708912 378,30.321258 C 383.80327,32.495448 402.07836,41.85374 408,45.683631 C 412.3213,48.478481 418.91409,52.930597 425.5,57.501393 C 428.25,59.409966 431.85,61.707441 433.5,62.606893 C 438.7227,65.453902 463.04412,91.205991 466.02069,97.040564 C 467.09359,99.14362 468.41252,101.13692 468.95165,101.47012 C 470.08446,102.17024 480.75152,121.25549 486.57421,133 C 487.25591,134.375 488.77379,138.425 489.94728,142 C 491.12078,145.575 493.15419,150.525 494.46598,153 C 497.64155,158.99147 500.84006,169.22925 505.55696,188.5 C 506.38593,191.88672 507.28255,202.12206 507.61557,212 C 508.02443,224.12747 508.79145,231.86713 510.11398,237.21049 C 511.16361,241.45126 512.28111,247.75126 512.59731,251.21049 C 512.9135,254.66972 513.83547,259.2641 514.64612,261.42023 C 515.6917,264.2012 516.04597,268.56035 515.86519,276.42023 C 515.61967,287.09465 515.7248,287.72497 518.73871,293.64911 C 522.0484,300.15465 522.92462,301.2676 532.6414,311.308 C 541.95935,320.93627 544.95693,328.42952 541.84536,334.31574 C 540.04532,337.7209 534.09134,343.25042 527.28535,347.83775 C 520.96533,352.09753 515.04282,354.81702 502.5,359.21866 C 498.65,360.56974 493.925,362.23944 492,362.9291 C 490.075,363.61876 486.85123,364.63675 484.83606,365.19131 L 481.17213,366.19959 L 478.48681,377.23673 C 468.63501,417.72941 449.15645,457.2755 424.66883,486.5 C 414.28198,498.89608 395.03769,517.18845 386,523.25607 C 384.625,524.1792 381.475,526.36772 379,528.11945 C 373.75327,531.83293 369.94281,534.07857 361,538.72749 C 353.73496,542.50421 335.81991,550 334.0585,550 C 333.43133,550 330.1241,550.8949 326.7091,551.98868 C 312.03882,556.68734 279.92582,558.27922 258.5002,555.36988 z M 310.60047,550.58979 C 325.10018,548.0755 334.36927,545.52732 344.5,541.27039 C 357.41223,535.84468 373.8674,527.06962 376.04114,524.45043 C 376.7032,523.65269 377.68112,523 378.21428,523 C 379.44991,523 382.66072,520.542 395.29524,509.92384 C 432.54169,478.62164 460.75032,430.64098 474.4139,375.34925 C 480.50255,350.71065 483.96282,324.8808 482.14303,317.65376 C 480.64766,311.71509 480.70105,310 482.38129,310 C 483.18706,310 484.24226,311.90503 484.91389,314.57229 C 486.04075,319.04748 486.13354,319.12988 489.2826,318.45186 C 500.21387,316.09826 505.84873,309.05252 509.56408,293.09221 C 511.52168,284.68282 512.31308,267.9592 510.92704,264.29054 C 508.68763,258.36311 501.16394,252.98806 494.82275,252.78536 C 493.30357,252.7368 490.8187,253.81621 489.07815,255.28079 C 487.3911,256.70034 484.99586,258.16723 483.7554,258.54052 C 482.51493,258.91382 478.73566,260.51992 475.35703,262.10962 C 468.52612,265.32369 463.36727,265.7584 458.97998,263.48965 C 454.6681,261.25989 453.58228,258.52805 452.82333,248 C 452.01529,236.79088 450.73535,228.83572 448.96185,224 C 444.67784,212.31896 444.49367,212.01663 439.81103,208.97844 C 436.20883,206.64126 433.54347,205.79535 428.31103,205.32864 C 424.56497,204.99451 420.27012,204.10126 418.76693,203.34364 C 413.84915,200.86503 411.42841,192.80506 414.10159,187.81017 C 415.01448,186.10443 414.48237,184.31697 410.99544,177.37591 L 406.7877,169 L 401.92778,169 C 399.25482,169 395.59009,168.36227 393.78393,167.58282 C 391.97777,166.80338 389.03402,165.62234 387.24227,164.9583 C 385.45052,164.29426 382.23342,162.05156 380.09317,159.97451 L 376.2018,156.19806 L 368.3509,157.13396 C 356.17292,158.58569 330.2669,156.63562 320,153.49437 C 317.525,152.73712 312.8,151.58778 309.5,150.94028 C 300.49096,149.1726 291.36207,144.1234 284.8863,137.32642 C 281.79877,134.08574 278.93305,130.32406 278.51802,128.96714 C 278.103,127.61021 277.19048,125.825 276.49019,125 C 274.70965,122.90235 263,100.25722 263,98.911484 C 263,96.927152 255.99829,83 255.00069,83 C 251.80608,83 246.0829,68.743866 245.96798,60.5 L 245.91221,56.5 L 244.64889,60 C 242.19422,66.800622 235.40691,75.347656 229.74113,78.772864 C 219.99419,84.665309 214.42464,85.339504 207.21215,81.5 C 200.13903,77.734686 196.79113,78.169138 187.74791,84.025849 C 178.30449,90.141737 174.92769,94.857562 170.94378,107.4934 C 168.03348,116.72404 171.30217,130.12155 178.20096,137.23873 C 180.01543,139.11064 182.29725,141.9602 183.27166,143.5711 C 184.24608,145.18199 186.60858,148.68836 188.52166,151.36301 C 192.59704,157.06074 192.98025,161.15823 189.98654,167.02638 C 187.3089,172.27499 181.94863,175 174.30194,175 C 169.87091,175 166.45421,175.87407 159.64343,178.75 C 150.91326,182.4364 150.72227,182.59114 148.38133,187.87443 C 147.0716,190.83037 146,194.79021 146,196.67409 C 146,203.5791 142.02977,207.81803 134,209.48627 C 129.53473,210.41396 120.80846,216.11719 118.5272,219.59884 C 117.17743,221.65884 116.9262,223.34508 117.44101,226.88933 C 119.19136,238.93974 119.22105,242.67185 117.59167,245.82274 C 113.86336,253.03249 104.04069,254.0318 91.275631,248.5 C 81.086731,244.08459 77.622715,244.04081 71.493658,248.25 C 66.532903,251.65685 65.567677,253.04674 61.96152,261.97595 C 60.183959,266.37738 59.75,269.44541 59.75,277.61113 C 59.75,287.28753 59.927202,288.13878 63.47845,295.52213 C 67.906697,304.72884 70.682019,307.44307 77.87472,309.60153 C 84.41053,311.56286 84.962635,311.03083 84.984687,302.75 C 84.996505,298.31236 85.342355,297 86.5,297 C 88.373473,297 88.579727,307.19838 86.867702,315.18128 C 86.012899,319.16709 86.033146,323.28411 86.950318,331.9805 C 94.639407,404.88645 126.51354,470.26398 173.70476,509.92384 C 186.33928,520.542 189.55009,523 190.78572,523 C 191.31888,523 192.2968,523.65269 192.95886,524.45043 C 195.1326,527.06962 211.58777,535.84468 224.5,541.27039 C 250.39259,552.15044 281.92047,555.56297 310.60047,550.58979 z M 287.45,484.11114 C 286.9275,483.62227 280.65,483.00981 273.5,482.75011 C 264.97916,482.44062 258.60497,481.66848 255,480.50911 C 249.79628,478.83557 234.24121,471.98202 231,469.93473 C 230.175,469.41363 228.825,468.72852 228,468.41228 C 222.66083,466.36563 219.73069,464.565 214.80974,460.30657 C 212.78009,458.55019 209.85509,456.44906 208.30974,455.6374 C 204.07092,453.41107 192.33945,436.87927 188.56598,427.81484 C 187.57805,425.44168 185.01634,419.82096 182.87328,415.32436 C 174.43426,397.61743 171,389.72563 171,388.03998 C 171,387.07149 169.93903,384.71567 168.6423,382.80482 C 167.34556,380.89398 165.96478,377.62578 165.57389,375.54217 C 165.183,373.45856 164.36472,370.95561 163.75548,369.98007 C 162.73924,368.3528 162.35268,368.48611 159.07389,371.5945 C 155.53865,374.94601 150.97793,376.16717 151.02364,373.75 C 151.03664,373.0625 152.86327,371.15615 155.08281,369.51366 C 157.30235,367.87118 160.77922,364.84125 162.80917,362.78049 C 166.53522,358.9979 170,357.84008 170,360.37756 C 170,361.13521 169.325,362.31531 168.5,363 C 166.83737,364.37986 166.49363,367.56901 167.91299,368.44622 C 168.41513,368.75656 169.1383,370.85912 169.52003,373.11857 C 169.90176,375.37802 171.29092,378.81346 172.60704,380.75288 C 173.92317,382.6923 175,385.05406 175,386.00123 C 175,387.9395 178.74472,396.70506 185.89329,411.5 C 198.7076,438.02099 200.01321,440.36021 204.88293,445.52304 C 206.59732,447.34062 208.01422,449.20399 208.03161,449.66387 C 208.04899,450.12374 209.96149,451.721 212.28161,453.21334 C 214.60172,454.70567 219.11705,457.74317 222.31567,459.96334 C 225.51428,462.1835 228.72168,464 229.44322,464 C 230.16476,464 231.31531,464.675 232,465.5 C 232.68469,466.325 233.70138,467 234.25932,467 C 234.81726,467 238.92466,468.74955 243.38688,470.88788 C 255.78981,476.83148 261.08368,478.1881 275.4086,479.09382 C 282.60887,479.54907 290.45151,480.21519 292.8367,480.57408 C 295.5424,480.9812 297.5921,480.8079 298.2867,480.1133 C 298.89901,479.50099 300.02949,479 300.79887,479 C 302.23266,479 307.29974,476.99588 312.33104,474.43882 C 313.88811,473.64747 315.84368,473 316.67675,473 C 318.01663,473 321.38361,471.50328 326,468.85555 C 326.825,468.38237 328.4211,467.59219 329.5469,467.09958 C 330.67269,466.60698 332.69769,465.04083 334.0469,463.61925 C 335.3961,462.19767 337.22912,461.02678 338.12027,461.01728 C 339.01143,461.00777 342.16143,458.60216 345.12027,455.67146 C 348.07912,452.74076 352.08132,449.39468 354.01404,448.23573 C 362.22058,443.3147 376.94687,425.50711 384.96917,410.80363 C 386.07839,408.77062 387.62316,406.74562 388.40199,406.30363 C 390.10505,405.33713 396.98821,392.17563 396.99512,389.87244 C 396.9978,388.97729 397.65757,387.69915 398.46127,387.03214 C 399.26497,386.36513 400.2182,384.84753 400.57955,383.65969 C 400.94091,382.47186 401.8623,380.78519 402.62709,379.91152 C 404.1458,378.17662 410,361.60007 410,359.03465 C 410,358.16006 410.98271,356.60306 412.18379,355.57466 L 414.36759,353.70484 L 411.68379,351.56485 C 408.91379,349.35613 408.04489,345.99095 410.25,346.01185 C 410.9375,346.01836 413.525,347.9545 416,350.31438 C 418.475,352.67426 423.98557,356.38143 428.24571,358.55254 C 435.84312,362.42442 438.09111,365 433.87311,365 C 432.70332,365 428.49385,363.20465 424.51874,361.01034 C 415.67118,356.12638 415.72635,356.08647 411.02176,370.77415 C 409.21177,376.42493 407.3346,381.29321 406.85028,381.59253 C 406.36596,381.89186 405.31056,383.56849 404.50495,385.31838 C 403.69934,387.06827 402.63962,389.175 402.15,390 C 401.66039,390.825 399.51384,395.26415 397.3799,399.86477 C 395.24595,404.4654 392.78833,408.7404 391.91851,409.36477 C 391.0487,409.98915 388.55662,413.425 386.38057,417 C 376.93645,432.5156 364.92123,446.32403 355.5,452.48936 C 352.75,454.28898 348.49381,457.84008 346.04179,460.3807 C 343.58978,462.92131 341.07202,465 340.44678,465 C 339.82154,465 338.45273,465.96211 337.40499,467.13802 C 336.35724,468.31392 334.15,469.89564 332.5,470.65293 C 330.85,471.41023 328.825,472.40919 328,472.87285 C 322.93949,475.71694 319.98609,477 318.5,477 C 317.56972,477 315.38915,477.73926 313.65429,478.64279 C 308.04729,481.56298 307.30131,481.85285 303.61206,482.54495 C 301.61328,482.91993 299.73132,483.62571 299.42994,484.11336 C 298.71606,485.26844 288.68491,485.26658 287.45,484.11114 z M 486.65499,300.17126 C 484.55047,297.8458 484.4548,290.69736 486.50542,288.9955 C 487.46956,288.19534 489.40861,287.96963 491.89834,288.36775 C 495.35115,288.91988 495.8463,288.73839 496.32648,286.7447 C 496.62383,285.51011 496.46661,282.475 495.97711,280 C 494.71163,273.60157 494.80282,272 496.43261,272 C 498.07938,272 498.59687,273.46179 499.51597,280.70973 C 500.42392,287.86981 499.41576,291.85755 496.51348,292.58597 C 495.23352,292.90722 493.29162,292.69125 492.19815,292.10604 C 490.66156,291.28369 489.91165,291.40153 488.89635,292.62489 C 487.80075,293.94501 487.86632,294.70196 489.29134,297.18492 C 490.2311,298.82236 491,300.57561 491,301.08104 C 491,302.64144 488.39727,302.09646 486.65499,300.17126 z M 86,287.17637 C 86,285.90041 84.873793,285.07452 82.25,284.42637 L 78.5,283.5 L 78.19388,277.54167 C 77.823624,270.33499 78.549423,267 80.488078,267 C 81.633135,267 81.891992,268.41947 81.719026,273.75 L 81.5,280.5 L 85,280.5 C 88.402745,280.5 88.508544,280.61809 88.807498,284.75 C 89.047163,288.06246 88.771417,289 87.557498,289 C 86.700874,289 86,288.17936 86,287.17637 z M 261.11007,275.60449 C 252.44067,270.79941 256.06765,257 266,257 C 271.06687,257 276,261.88542 276,266.90329 C 276,274.41071 267.70347,279.25894 261.11007,275.60449 z M 299.11007,275.60449 C 290.44067,270.79941 294.06765,257 304,257 C 309.06687,257 314,261.88542 314,266.90329 C 314,274.41071 305.70347,279.25894 299.11007,275.60449 z M 320.38544,254.23624 C 316.60938,249.65452 307.38501,244.95072 300.53687,244.11481 C 296.3716,243.60639 295.5,243.15391 295.5,241.5 C 295.5,239.70143 296.15465,239.50363 302,239.53604 C 307.12317,239.56444 309.72654,240.18552 314.29048,242.46812 C 320.72272,245.68514 328.30563,253.16462 327.804,255.79732 C 327.20226,258.95541 323.66057,258.21014 320.38544,254.23624 z M 241.49447,255.99105 C 238.86264,251.73267 251.57246,242.19945 263.03923,239.83102 C 269.71631,238.4519 272.5,239.26927 272.5,242.60899 C 272.5,244.08751 271.73653,244.51829 269,244.58385 C 267.075,244.62997 263.71913,245.18197 261.54252,245.81053 C 257.0697,247.10218 247.44856,253.38868 246.61329,255.56537 C 245.98357,257.20639 242.42832,257.50205 241.49447,255.99105 z M 388.5,175.50684 C 384.22962,174.12386 381.18161,172.59491 376.71829,169.5969 C 374.94095,168.40306 371.42059,167.5484 366.96829,167.22984 C 361.68247,166.85165 360,166.37126 360,165.24023 C 360,162.81177 376.24443,163.98455 379.24442,166.6296 C 382.80836,169.77187 393.92423,173.96596 398.75,173.98918 C 400.07852,173.99557 401,174.61432 401,175.5 C 401,177.38761 394.31872,177.39126 388.5,175.50684 z M 350,164.5 C 350,163.675 350.675,163 351.5,163 C 352.325,163 353,163.675 353,164.5 C 353,165.325 352.325,166 351.5,166 C 350.675,166 350,165.325 350,164.5 z M 252.6757,107.84363 C 251.15238,106.10762 250.12127,104.12636 250.38433,103.44083 C 250.6474,102.75529 250.30583,101.43292 249.62529,100.50223 C 248.512,98.979717 248.14292,99.169801 245.94397,102.3982 C 244.59979,104.37167 242.9375,105.98941 242.25,105.99317 C 240.05749,106.00515 240.90213,102.19732 244.09757,97.66392 L 247.19513,93.269367 L 244.59757,89.154556 C 243.1689,86.891409 242,84.355801 242,83.519872 C 242,80.620768 244.89906,82.020819 247.32712,86.092518 C 248.74852,88.4761 250.04956,89.728827 250.44282,89.092518 C 251.37379,87.586182 255.00731,87.712628 254.9682,89.25 C 254.9507,89.9375 254.2757,91.373508 253.4682,92.44113 C 251.84683,94.584762 251.49345,98 252.89301,98 C 253.38417,98 254.04504,97.325 254.36163,96.5 C 255.02017,94.783858 259,94.436899 259,96.09563 C 259,96.698226 258.01948,98.568274 256.82106,100.25129 C 254.73418,103.18205 254.71306,103.43491 256.32106,106.2367 C 259.55897,111.87843 257.14855,112.94098 252.6757,107.84363 z M 89.616515,373.44304 C 87.303286,367.41486 82,331.49215 82,321.85129 C 82,316.73668 80.209365,314 76.86283,314 C 72.151802,314 64.319161,307.53507 61.453129,301.28109 L 59.406258,296.8146 L 55.544275,302.6573 C 53.420184,305.87079 50.896562,309.4 49.936226,310.5 C 42.154715,319.41319 40.224968,321.59262 38.273358,323.6719 C 34.749995,327.42574 33.811098,329.8583 34.553865,333.30865 C 35.570084,338.02926 37.38439,341.12449 41.805628,345.68028 C 43.985084,347.92606 46.157913,350.4209 46.634137,351.22436 C 47.858849,353.29065 71.18865,368.71466 76.815445,371.17811 C 86.106195,375.24566 90.614326,376.04329 89.616515,373.44304 z M 77,357.5 C 77,356.675 77.675,356 78.5,356 C 79.325,356 80,356.675 80,357.5 C 80,358.325 79.325,359 78.5,359 C 77.675,359 77,358.325 77,357.5 z M 74.101188,345.25 C 73.422282,343.1875 72.609013,336.4375 72.293924,330.25 C 71.806339,320.67515 71.943773,319 73.216904,319 C 74.413335,319 74.817733,321.05181 75.237105,329.25 C 75.545906,335.28665 76.427056,341.09167 77.380718,343.37212 C 79.4403,348.29712 79.413705,349 77.167781,349 C 75.936662,349 74.930599,347.76973 74.101188,345.25 z M 490,358.93892 C 491.925,358.24385 496.65,356.56974 500.5,355.21866 C 504.35,353.86759 510.10341,351.69664 513.28535,350.39434 C 523.99858,346.00963 537.33523,335.49684 538.60559,330.43532 C 539.43265,327.14006 535.99149,321.30836 528.85578,313.91244 C 521.18628,305.96324 518.42528,302.61038 515.75229,298 L 513.72307,294.5 L 512.50067,299.31087 C 511.82835,301.95684 510.76566,304.63434 510.13913,305.26087 C 509.51261,305.88739 509,307.10747 509,307.97216 C 509,312.42588 498.12092,321.18992 490.97219,322.49512 L 487.44437,323.13922 L 485.27098,340.36067 C 484.07561,349.83247 482.77695,358.41769 482.38506,359.43894 C 481.78457,361.00378 482.05208,361.20981 484.08627,360.74921 C 485.41382,360.44861 488.075,359.63398 490,358.93892 z M 494,327.57339 C 494,326.78876 496.39235,324.77802 499.31633,323.10509 C 502.24031,321.43215 505.46005,319.14913 506.47132,318.0317 C 507.48258,316.91426 509.14023,316 510.15499,316 C 514.70463,316 510.27877,321.56664 501.91214,326.36746 C 496.80623,329.29726 494,329.72498 494,327.57339 z M 473.35703,258.14839 C 476.73566,256.58 480.9625,254.72541 482.75,254.02707 C 484.5375,253.32873 486,252.44189 486,252.05631 C 486,251.06385 493.91586,246 495.4673,246 C 496.1756,246 497.31531,246.675 498,247.5 C 498.68469,248.325 499.76033,249 500.39031,249 C 501.02029,249 503.24205,250.15947 505.32755,251.57661 L 509.11937,254.15322 L 508.45849,250.32661 C 508.09501,248.22197 506.97737,243.125 505.97485,239 C 504.8039,234.18201 504.11531,227.38759 504.04925,220 C 503.94095,207.88885 502.61535,193.8769 501.02187,188 C 500.49993,186.075 499.36719,181.8 498.50469,178.5 C 495.7074,167.79743 492.9019,159.59595 490.46598,155 C 489.15419,152.525 487.12078,147.575 485.94728,144 C 484.77379,140.425 483.25591,136.375 482.57421,135 C 476.58759,122.92484 466.83431,105.55271 465.81909,105.15649 C 465.335,104.96755 463.87035,102.71755 462.56433,100.15649 C 461.2583,97.595419 457.61809,92.8 454.47496,89.5 C 437.10163,71.259567 433.67975,67.875255 431.21061,66.491073 C 429.71977,65.655322 426.25,63.409966 423.5,61.501393 C 416.91409,56.930597 410.3213,52.478481 406,49.683631 C 400.07836,45.85374 381.80327,36.495448 376,34.321258 C 342.3356,21.708912 339.54887,20.78582 328.18462,18.482615 C 319.98827,16.821452 302.26478,16.505205 297.571,17.936365 C 295.88195,18.451366 292.475,19.318142 290,19.862534 C 287.525,20.406926 283.475,21.529229 281,22.356542 C 278.525,23.183854 275.24754,24.129406 273.71676,24.457769 C 272.18597,24.786131 270.16097,25.985741 269.21676,27.123567 C 267.49746,29.195401 256.20178,37 254.92248,37 C 253.82631,37 252.12167,42.244703 252.1598,45.5 C 252.17913,47.15 251.62658,50.937708 250.93192,53.91713 C 248.86685,62.774199 252.50154,75.861282 258.11932,79.79613 C 259.96723,81.090454 267,94.644416 267,96.911484 C 267,98.257215 278.70965,120.90235 280.49019,123 C 281.19048,123.825 282.06323,125.4849 282.42964,126.68866 C 283.54305,130.34655 293.67517,139.8076 299.7638,142.87477 C 302.91871,144.46406 308.2,146.28767 311.5,146.92723 C 314.8,147.5668 319.3,148.70431 321.5,149.45505 C 330.22224,152.43146 354.77168,154.24676 367.84754,152.88219 L 378.19509,151.80234 L 382.15803,155.80491 C 384.33765,158.00632 387.55626,160.33806 389.31049,160.98656 C 391.06472,161.63506 393.97777,162.80338 395.78393,163.58282 C 397.59009,164.36227 401.52151,165 404.52043,165 L 409.973,165 L 413.53502,172.50625 C 415.49413,176.63469 418.04513,180.89577 419.20389,181.97533 L 421.31073,183.93815 L 418.97838,188.33468 C 416.91417,192.22576 416.7912,193.0817 417.9088,195.77982 C 419.41166,199.40804 422.25157,200.63223 431,201.42299 C 434.94612,201.77967 438.48226,202.73338 440,203.85032 C 441.375,204.86222 443.9625,206.44641 445.75,207.37075 C 447.5375,208.29509 449,209.69954 449,210.49175 C 449,211.28397 449.61623,213.40991 450.3694,215.21607 C 454.48039,225.0746 455.69928,230.84148 456.87589,246 C 457.70896,256.73266 458.21573,258.31106 461.30834,259.80554 C 464.76509,261.47598 466.78808,261.19774 473.35703,258.14839 z M 466.58208,247.75 C 466.33127,246.5125 465.89563,242.19874 465.61399,238.16387 C 465.33235,234.12899 464.66926,230.30399 464.14045,229.66387 C 463.61164,229.02374 462.86362,226.8125 462.4782,224.75 C 461.44827,219.23867 464.25391,219.75787 466.44045,225.48324 C 467.7596,228.93738 469.71416,242.0879 469.9729,249.25 C 470.04003,251.10802 466.98914,249.7584 466.58208,247.75 z M 487,233.05902 C 487,228.69148 487.45,224.83992 488,224.5 C 488.55,224.16008 489,221.23508 489,218 C 489,214.76492 489.45,211.83992 490,211.5 C 490.55,211.16008 491,206.88508 491,202 C 491,197.11492 490.55,192.83992 490,192.5 C 489.45,192.16008 489,190.08971 489,187.89917 C 489,185.29862 488.30589,183.17133 487,181.76963 C 485.9,180.58891 485,178.68207 485,177.5322 C 485,176.38232 484.1,174.79284 483,174 C 480.92552,172.5048 480.20885,168 482.04545,168 C 483.78909,168 488,172.78474 488,174.76598 C 488,175.78728 488.9,177.58891 490,178.76963 C 491.28042,180.14399 492,182.29862 492,184.75819 C 492,186.87118 492.47828,189.07828 493.06285,189.66285 C 494.77695,191.37695 492.84071,225.45303 490.91575,227.45 C 489.67289,228.73934 489.74685,238 491,238 C 491.55,238 492,238.675 492,239.5 C 492,240.43333 491.05556,241 489.5,241 C 487.04321,241 487,240.86273 487,233.05902 z M 478.41664,211.68256 C 477.82079,210.99981 477.06531,208.78991 476.7378,206.77169 C 476.07799,202.70575 473.40671,196.37768 471.29652,193.88166 C 468.75047,190.87011 463,180.76711 463,179.30552 C 463,176.71487 466.27224,178.39558 468.24599,182 C 469.30011,183.925 471.38646,187.075 472.88234,189 C 476.50051,193.65614 479.11224,199.41794 479.74583,204.14171 C 480.03046,206.26377 480.65409,208 481.13167,208 C 481.60925,208 482,209.125 482,210.5 C 482,213.15467 480.21536,213.74362 478.41664,211.68256 z M 455.03527,202.57285 C 452.36285,197.05238 447.64005,194.4174 437.73093,192.91827 C 428.72176,191.5553 426,189.94481 426,185.97695 C 426,183.99744 426.50258,183 427.5,183 C 428.325,183 429,183.64286 429,184.42857 C 429,187.2544 432.03416,188.77491 439.99621,189.93912 C 444.45032,190.5904 449.55649,191.9858 451.34326,193.04002 C 455.36224,195.41128 458.85278,200.01389 459.64817,203.99085 C 460.59577,208.72885 457.56421,207.79696 455.03527,202.57285 z M 441,161.5 C 441,160.675 441.675,160 442.5,160 C 443.325,160 444,160.675 444,161.5 C 444,162.325 443.325,163 442.5,163 C 441.675,163 441,162.325 441,161.5 z M 402,160.07838 C 397.29224,159.14809 393,156.19437 393,153.88499 C 393,151.34319 394.49511,151.51312 398.41111,154.5 C 400.92779,156.41956 402.88579,157 406.84439,157 C 410.5845,157 412,157.38246 412,158.39301 C 412,160.89064 408.82143,161.42634 402,160.07838 z M 327.5,147.0081 C 321.75981,146.15582 303.89866,136.4539 300.18413,132.17053 C 297.01665,128.51798 290,117.8216 290,116.64556 C 290,116.11933 288.9875,114.29631 287.75,112.59439 C 285.60129,109.6393 280.65256,99.880792 270.66219,78.898569 C 268.14783,73.617782 264.95301,68.217782 263.56259,66.898569 C 260.51543,64.007464 260.28231,62 262.99373,62 C 265.48952,62 269.43451,67.355173 274.11057,77.090679 C 281.88498,93.276949 284,97.857118 284,98.506703 C 284,98.879514 284.9,100.32871 286,101.72713 C 287.1,103.12555 288,105.05393 288,106.01241 C 288,106.9709 288.63119,108.27895 289.40265,108.91921 C 290.17411,109.55946 291.97517,112.42706 293.40501,115.29165 C 297.67481,123.8459 302.24978,129.19651 309.57256,134.20024 C 319.02613,140.65996 326.24554,143.6662 334.25,144.47616 C 339.09465,144.96639 341,145.56013 341,146.57959 C 341,148.15519 336.24269,148.30619 327.5,147.0081 z M 353,145.5 C 353,144.675 353.675,144 354.5,144 C 355.325,144 356,144.675 356,145.5 C 356,146.325 355.325,147 354.5,147 C 353.675,147 353,146.325 353,145.5 z M 429,145.5 C 429,144.675 429.675,144 430.5,144 C 431.325,144 432,144.675 432,145.5 C 432,146.325 431.325,147 430.5,147 C 429.675,147 429,146.325 429,145.5 z M 467,145.5 C 467,144.675 467.675,144 468.5,144 C 469.325,144 470,144.675 470,145.5 C 470,146.325 469.325,147 468.5,147 C 467.675,147 467,146.325 467,145.5 z M 401.5,130.96961 C 397.65,128.86938 393.51406,127.11703 392.30902,127.0755 C 391.10398,127.03398 389.83992,126.55 389.5,126 C 389.14655,125.42811 384.00929,125 377.5,125 C 370.99071,125 365.85345,124.57189 365.5,124 C 365.16008,123.45 364.00852,123 362.94098,123 C 361.87344,123 361,122.65985 361,122.24411 C 361,121.82837 359.5375,120.86632 357.75,120.10621 C 355.9625,119.34611 353.15,117.5173 351.5,116.0422 C 348.49813,113.35852 344.24098,110.43141 340.51971,108.49242 C 339.43055,107.92491 337.98436,106.34445 337.30595,104.98029 C 336.62754,103.61613 334.48118,101.08172 332.53624,99.348257 C 330.59131,97.614798 329,95.477298 329,94.598257 C 329,93.719215 328.55,93 328,93 C 327.45,93 327,92.1 327,91 C 327,89.9 326.55,89 326,89 C 325.45,89 325,88.318894 325,87.486431 C 325,85.285524 323.00775,82.106164 318.76078,77.5295 C 316.70421,75.313275 315.01671,72.680357 315.01078,71.678571 C 314.99939,69.75427 312.77154,67 311.22642,67 C 310.72237,67 309.49549,66.1 308.5,65 C 307.50451,63.9 305.52227,62.991811 304.09501,62.981803 C 302.66776,62.971794 299.51978,61.621794 297.09952,59.981803 C 293.90889,57.819806 291.51942,57 288.40854,57 C 286.04876,57 283.83992,56.55 283.5,56 C 282.69757,54.70164 277.30243,54.70164 276.5,56 C 275.4725,57.662522 269,57.231022 269,55.5 C 269,54.675 269.87344,54 270.94098,54 C 272.00852,54 273.16008,53.55 273.5,53 C 273.83992,52.45 276.76492,52 280,52 C 283.23508,52 286.16008,52.45 286.5,53 C 286.83992,53.55 289.04876,54 291.40854,54 C 294.51942,54 296.90889,54.819806 300.09952,56.981803 C 302.51978,58.621794 305.66776,59.971794 307.09501,59.981803 C 308.52227,59.991811 310.50451,60.9 311.5,62 C 312.49549,63.1 313.72237,64 314.22642,64 C 315.77154,64 317.99939,66.75427 318.01078,68.678571 C 318.01671,69.680357 319.70421,72.313275 321.76078,74.5295 C 326.00775,79.106164 328,82.285524 328,84.486431 C 328,85.318894 328.45,86 329,86 C 329.55,86 330,86.9 330,88 C 330,89.1 330.45,90 331,90 C 331.55,90 332,90.719215 332,91.598257 C 332,92.477298 333.59131,94.614798 335.53624,96.348257 C 337.48118,98.081715 339.62754,100.61613 340.30595,101.98029 C 340.98436,103.34445 342.43055,104.92491 343.51971,105.49242 C 347.24098,107.43141 351.49813,110.35852 354.5,113.0422 C 356.15,114.5173 358.9625,116.34611 360.75,117.10621 C 362.5375,117.86632 364,118.82837 364,119.24411 C 364,119.65985 364.87344,120 365.94098,120 C 367.00852,120 368.16008,120.45 368.5,121 C 368.85345,121.57189 373.99071,122 380.5,122 C 387.00929,122 392.14655,122.42811 392.5,123 C 392.83992,123.55 393.96726,124 395.00521,124 C 396.04315,124 400.37079,125.8 404.62219,128 C 408.87358,130.2 413.1728,132 414.176,132 C 415.1792,132 416,132.675 416,133.5 C 416,136.28294 409.00106,135.06156 401.5,130.96961 z M 455,127 C 455,125.9 454.55,125 454,125 C 453.45,125 453,124.1 453,123 C 453,121.9 452.60127,121 452.11394,121 C 451.62661,121 450.53068,119.53075 449.67854,117.735 C 448.8264,115.93925 446.97513,113.38581 445.5646,112.06069 C 444.15407,110.73556 443,109.13325 443,108.5 C 443,106.85706 439.11985,103.6123 434.79665,101.63997 C 432.7598,100.71073 430.5098,99.398002 429.79665,98.722806 C 429.08349,98.047609 426.8125,96.60643 424.75,95.520184 C 422.6875,94.433938 421,93.00675 421,92.348654 C 421,91.690559 419.58913,90.105391 417.86474,88.826058 C 416.14035,87.546726 411.75285,83.64736 408.11474,80.160801 C 404.47663,76.674242 400.3161,73.202904 398.86912,72.446718 C 397.42213,71.690532 395.14621,69.818171 393.81152,68.285917 C 391.41489,65.534526 389.81838,64.456296 381,59.63344 C 378.525,58.279839 374.77455,55.333569 372.66567,53.086174 C 370.55679,50.838778 368.02997,49 367.05053,49 C 366.07108,49 364.19653,48.20064 362.88486,47.223644 C 358.62812,44.053022 355.27755,42.856256 346.5,41.37126 C 344.85,41.092112 342.56355,40.409041 341.419,39.853327 C 339.08519,38.720184 317.16745,39.334124 302,40.957497 C 296.775,41.516729 289.6875,42.245039 286.25,42.575962 C 282.8125,42.906886 280,43.587672 280,44.088821 C 280,44.589969 277.975,45 275.5,45 C 272.16667,45 271,44.611111 271,43.5 C 271,42.5 272,42 274,42 C 275.65,42 277,41.589969 277,41.088821 C 277,40.587672 279.8125,39.906886 283.25,39.575962 C 286.6875,39.245039 293.775,38.511473 299,37.945816 C 313.44767,36.381715 342.04089,35.700757 344.43836,36.863684 C 345.57226,37.413702 347.85,38.092112 349.5,38.37126 C 358.27755,39.856256 361.62812,41.053022 365.88486,44.223644 C 367.19653,45.20064 368.99653,46.0004 369.88486,46.000888 C 370.77319,46.001376 373.28533,47.842138 375.46739,50.091469 C 377.64946,52.340801 381.11074,55.036174 383.15914,56.081187 C 388.32912,58.718714 393.05156,62.0107 397.07805,65.783984 C 398.96012,67.547703 400.8564,68.992827 401.292,68.995373 C 401.7276,68.997918 405.1026,71.895801 408.792,75.435113 C 412.4814,78.974425 417.075,82.922979 419,84.209677 C 420.925,85.496375 422.91906,87.492164 423.43124,88.644764 C 423.94342,89.797364 425.96842,91.585225 427.93124,92.617788 C 429.89406,93.650351 432.08349,95.047609 432.79665,95.722806 C 433.5098,96.398002 435.7598,97.710728 437.79665,98.639974 C 442.11985,100.6123 446,103.85706 446,105.5 C 446,106.13325 447.15407,107.73556 448.5646,109.06069 C 449.97513,110.38581 451.8264,112.93925 452.67854,114.735 C 453.53068,116.53075 454.62661,118 455.11394,118 C 455.60127,118 456,118.9 456,120 C 456,121.1 456.45,122 457,122 C 457.55,122 458,123.575 458,125.5 C 458,127.94444 457.54762,129 456.5,129 C 455.66667,129 455,128.11111 455,127 z M 74.792463,242.458 C 81.624334,240.47192 85.528713,240.97486 94.489305,244.9952 C 108.9045,251.46286 116.85569,247.04699 114.17387,234.06293 C 112.30901,225.03417 112.66421,220.46454 115.57246,216.06986 C 116.98732,213.93187 119.42998,211.65032 121.00061,210.99975 C 122.57123,210.34917 124.0753,209.24616 124.34298,208.5486 C 124.61065,207.85105 127.00549,206.75281 129.66483,206.10807 C 139.84744,203.63937 142,201.62719 142,194.57738 C 142,190.94024 145.97912,181.06884 148.14453,179.33402 C 148.89004,178.73676 153.29173,176.61727 157.92608,174.62405 C 164.38489,171.84612 167.70396,171 172.14215,171 C 179.90423,171 184.34612,168.77646 186.60909,163.75808 C 188.36685,159.86006 188.35897,159.74062 186.05721,155.40177 C 184.77289,152.9808 183.35358,151 182.90319,151 C 182.45281,151 180.84059,148.8625 179.32049,146.25 C 177.8004,143.6375 175.55869,140.70129 174.33893,139.72508 C 173.11916,138.74887 170.74391,135.03517 169.06059,131.47241 C 166.35547,125.74701 166.0051,123.97872 166.04389,116.24733 C 166.07083,110.87929 166.68177,105.95471 167.62531,103.5 C 168.47096,101.3 169.40335,98.375 169.69731,97 C 169.99127,95.625 170.74213,94.05 171.36589,93.5 C 171.98965,92.95 173.70563,90.750137 175.17918,88.611415 C 176.65273,86.472693 179.44582,83.772693 181.38606,82.611415 C 183.32629,81.450137 187.01601,79.209629 189.58543,77.632509 C 195.92418,73.74176 201.85648,73.669576 208.98403,77.396469 C 213.6385,79.830223 214.76634,80.048758 218.18888,79.180026 C 233.36698,75.327413 244.41161,58.636584 241.95941,43.2576 C 240.60826,34.783849 239.45246,32.622577 234.90536,30.066967 C 231.19908,27.983919 230.48868,27.929494 219.75835,28.906526 C 200.99014,30.615434 193.92038,32.046738 184.18342,36.108823 C 173.38322,40.614474 168.96293,43.499429 160,51.892403 C 146.13517,64.87557 139.16621,72.495989 132.92353,81.5 C 130.63557,84.8 126.90429,89.328834 124.6318,91.564076 C 119.52206,96.590065 113.72003,104.90173 107.56758,116.00935 C 104.98098,120.67921 101.56158,126.525 99.968928,129 C 98.376276,131.475 93.157328,141.375 88.371266,151 C 75.047212,177.79531 73.869001,180.73458 71.038041,194.24107 C 69.91509,199.59865 68.294819,205.89865 67.437438,208.24107 C 64.039298,217.52498 63.161951,223.45938 63.555291,234.5 C 63.770833,240.55 63.959068,246.09516 63.973593,246.82258 C 63.991996,247.7443 64.779196,247.53224 66.570825,246.12295 C 67.984778,245.01073 71.684515,243.36151 74.792463,242.458 z M 104,232.37387 C 104,227.67603 107.21191,210.57058 108.60885,207.82884 C 110.32811,204.45447 113.7853,202.09487 122,198.68911 C 129.72628,195.48584 130,195.45829 130,197.88386 C 130,199.24544 128.4059,200.4017 124.25,202.05452 C 112.37084,206.77893 111.00851,208.69451 108.46489,224.25 C 107.23751,231.75609 106.29863,235 105.35353,235 C 104.55909,235 104,233.91524 104,232.37387 z M 78,223.5 C 78,222.675 78.675,222 79.5,222 C 80.325,222 81,222.675 81,223.5 C 81,224.325 80.325,225 79.5,225 C 78.675,225 78,224.325 78,223.5 z M 78.024446,212.75 C 78.037891,211.5125 78.499194,208.475 79.049564,206 C 80.8913,197.71775 89.846436,177.72305 98.084271,163.5 C 100.31415,159.65 104.64909,151.325 107.71748,145 C 110.78586,138.675 115.02968,130.64151 117.14818,127.1478 C 119.26668,123.65408 121,120.59497 121,120.34976 C 121,119.96949 123.80206,115.28251 128.71704,107.44157 C 129.38642,106.37371 131.37833,103.025 133.14352,100 C 136.8343,93.675133 143.89262,83.011528 145.44502,81.415083 C 146.02526,80.818379 147.4,79.074523 148.5,77.539847 C 163.69064,56.346467 173.558,47.339712 188.49163,41.036158 C 193.94371,38.734811 196.00451,38.470623 210.75,38.182701 C 224.64632,37.911361 227,38.081978 227,39.360656 C 227,40.604193 224.51693,40.915079 212.25,41.20739 C 195.08485,41.616421 190.79723,42.885608 178.48824,51.201279 C 172.43794,55.288725 163.2018,64.047926 159.19317,69.5 C 158.78878,70.05 155.09239,74.981593 150.97896,80.459095 C 144.12143,89.590683 137.77744,99.373838 131.17438,111 C 129.76871,113.475 128.33319,115.725 127.98433,116 C 127.05561,116.73209 117.73432,133.94876 107.99188,152.92658 C 103.31242,162.04196 98.13742,171.74621 96.491884,174.49159 C 91.275544,183.1944 84.486879,199.56689 82.287025,208.75 C 81.337422,212.71404 80.27962,215 79.394905,215 C 78.60776,215 78.010651,214.01968 78.024446,212.75 z M 171,163.5 C 171,162.675 171.675,162 172.5,162 C 173.325,162 174,162.675 174,163.5 C 174,164.325 173.325,165 172.5,165 C 171.675,165 171,164.325 171,163.5 z M 169.48913,151.66544 C 168.38315,150.40131 166.78487,148.94694 165.93741,148.43351 C 163.73091,147.09671 159.28961,137.11405 158.47013,131.64939 C 157.90148,127.85737 158.05207,127 159.28672,127 C 160.27681,127 161.21574,128.73086 162.00074,132.00308 C 162.66086,134.75478 163.60574,137.25634 164.10048,137.5621 C 164.59522,137.86786 165,138.94424 165,139.95406 C 165,140.96387 166.17061,142.84981 167.60135,144.14504 C 169.0321,145.44027 171.0571,147.2875 172.10135,148.25 C 174.23534,150.21691 174.66453,154.00961 172.75,153.98193 C 172.0625,153.97199 170.59511,152.92957 169.48913,151.66544 z M 171,84.5 C 171,83.675 171.675,83 172.5,83 C 173.325,83 174,83.675 174,84.5 C 174,85.325 173.325,86 172.5,86 C 171.675,86 171,85.325 171,84.5 z M 176,75.584029 C 176,73.577814 182.81518,68.431782 189.564,65.342071 C 195.03249,62.838512 195.77045,62.752677 205.39989,63.500154 C 221.00177,64.711236 221.71683,64.645682 224.76322,61.725014 C 227.51899,59.082974 230.81507,51.536664 233.05113,42.75 C 233.75531,39.982908 234.83185,38 235.62996,38 C 237.40607,38 237.35947,40.435299 235.43999,47.927773 C 233.29715,56.292097 230.5941,62.093056 227.47236,65.026959 C 224.51038,67.810703 219.7804,68.15488 205.86784,66.599012 C 198.78859,65.807327 197.82246,65.934668 192.53194,68.356746 C 189.39489,69.792935 185.11461,72.325199 183.0202,73.984 C 178.94294,77.213248 176,77.883997 176,75.584029 z " id="path1932"/>
  <metadata>
    <rdf:RDF>
      <cc:Work>
        <dc:format>image/svg+xml</dc:format>
        <dc:type rdf:resource="http://purl.org/dc/dcmitype/StillImage"/>
        <cc:license rdf:resource="http://creativecommons.org/licenses/publicdomain/"/>
        <dc:publisher>
          <cc:Agent rdf:about="http://openclipart.org/">
            <dc:title>Open Clip Art Library</dc:title>
          </cc:Agent>
        </dc:publisher>
        <dc:title>boyface3 colour</dc:title>
        <dc:date>2006-10-11T02:55:43</dc:date>
        <dc:description>Boy with blonde hair.</dc:description>
        <dc:source>http://openclipart.org/detail/507/boyface3-colour-by-ryanlerch</dc:source>
        <dc:creator>
          <cc:Agent>
            <dc:title>ryanlerch</dc:title>
          </cc:Agent>
        </dc:creator>
        <dc:subject>
          <rdf:Bag>
            <rdf:li>boy</rdf:li>
            <rdf:li>cartoon</rdf:li>
            <rdf:li>clip art</rdf:li>
            <rdf:li>clipart</rdf:li>
            <rdf:li>contour</rdf:li>
            <rdf:li>face</rdf:li>
            <rdf:li>head</rdf:li>
            <rdf:li>people</rdf:li>
            <rdf:li>person</rdf:li>
            <rdf:li>remix</rdf:li>
            <rdf:li>smiling</rdf:li>
            <rdf:li>worldlabel</rdf:li>
          </rdf:Bag>
        </dc:subject>
      </cc:Work>
      <cc:License rdf:about="http://creativecommons.org/licenses/publicdomain/">
        <cc:permits rdf:resource="http://creativecommons.org/ns#Reproduction"/>
        <cc:permits rdf:resource="http://creativecommons.org/ns#Distribution"/>
        <cc:permits rdf:resource="http://creativecommons.org/ns#DerivativeWorks"/>
      </cc:License>
    </rdf:RDF>
  </metadata>
</svg>
