<?xml version="1.0" encoding="utf-8"?>
<!-- Generator: Adobe Illustrator 25.3.1, SVG Export Plug-In . SVG Version: 6.00 Build 0)  -->
<svg version="1.1" id="Layer_1" xmlns="http://www.w3.org/2000/svg" xmlns:xlink="http://www.w3.org/1999/xlink" x="0px" y="0px"
	 viewBox="0 0 1920 1080" style="enable-background:new 0 0 1920 1080;" xml:space="preserve">
<circle cx="959.96" cy="43.81" r="43.81"/>
<circle cx="820.06" cy="69.42" r="43.81"/>
<ellipse transform="matrix(0.1602 -0.9871 0.9871 0.1602 447.5191 806.3243)" cx="697.62" cy="140.16" rx="43.81" ry="43.81"/>
<circle cx="606.72" cy="248.49" r="43.81"/>
<path d="M899.26,747.41c0-0.06-0.03-0.07-0.06-0.14l-56.39-141.02c-3.49-158.04-132.89-285.61-291.75-285.61
	C390.04,320.65,259,451.69,259,612.71c0,81.48,33.62,155.18,87.62,208.23V1080H697.1V978.39c80.51,0,131.43-51.52,131.43-132.05
	v-58.4h43.81c16.14,0,29.2-13.08,29.2-29.22C901.54,755.12,899.26,747.41,899.26,747.41z M434.24,729.55
	c-24.18,0-43.81-19.63-43.81-43.81c0-24.2,19.63-43.81,43.81-43.81c24.18,0,43.81,19.61,43.81,43.81
	C478.05,709.92,458.42,729.55,434.24,729.55z M434.24,612.71c-24.18,0-43.81-19.61-43.81-43.81c0-24.18,19.63-43.81,43.81-43.81
	c24.18,0,43.81,19.61,43.81,43.81S458.42,612.71,434.24,612.71z M551.06,729.55c-24.2,0-43.81-19.63-43.81-43.81
	c0-24.2,19.61-43.81,43.81-43.81c24.18,0,43.81,19.61,43.81,43.81C594.87,709.92,575.26,729.55,551.06,729.55z M551.06,612.71
	c-24.2,0-43.81-19.61-43.81-43.81c0-24.18,19.61-43.81,43.81-43.81c24.18,0,43.81,19.61,43.81,43.81S575.26,612.71,551.06,612.71z
	 M551.06,495.89c-24.2,0-43.81-19.63-43.81-43.81s19.61-43.81,43.81-43.81c24.18,0,43.81,19.63,43.81,43.81
	C594.87,476.26,575.26,495.89,551.06,495.89z M667.9,729.55c-24.18,0-43.81-19.63-43.81-43.81c0-24.2,19.63-43.81,43.81-43.81
	c24.2,0,43.81,19.61,43.81,43.81C711.71,709.92,692.08,729.55,667.9,729.55z M667.9,612.71c-24.18,0-43.81-19.61-43.81-43.81
	c0-24.18,19.63-43.81,43.81-43.81c24.2,0,43.81,19.61,43.81,43.81S692.08,612.71,667.9,612.71z"/>
<circle cx="1098.12" cy="69.42" r="43.81"/>
<circle cx="1220.58" cy="140.16" r="43.81"/>
<circle cx="1311.47" cy="248.49" r="43.81"/>
<path d="M1368.86,320.65c-158.88,0-288.26,127.58-291.77,285.61l-56.37,141.02c-0.03,0.07-0.07,0.08-0.07,0.14
	c0,0-2.27,7.71-2.27,11.3c0,16.14,13.07,29.22,29.2,29.22h43.81v58.4c0,80.53,50.92,132.05,131.43,132.05V1080h350.48V820.94
	c54-53.03,87.62-126.73,87.62-208.23C1660.92,451.69,1529.89,320.65,1368.86,320.65z M1368.86,729.55
	c-24.2,0-43.81-19.63-43.81-43.81c0-24.2,19.61-43.81,43.81-43.81c24.18,0,43.81,19.61,43.81,43.81
	C1412.67,709.92,1393.04,729.55,1368.86,729.55z M1368.86,612.71c-24.2,0-43.81-19.61-43.81-43.81c0-24.18,19.61-43.81,43.81-43.81
	c24.18,0,43.81,19.61,43.81,43.81S1393.04,612.71,1368.86,612.71z M1368.86,495.89c-24.2,0-43.81-19.63-43.81-43.81
	s19.61-43.81,43.81-43.81c24.18,0,43.81,19.63,43.81,43.81C1412.67,476.26,1393.04,495.89,1368.86,495.89z"/>
</svg>
